<svg xmlns:xlink="http://www.w3.org/1999/xlink" width="477.723" xmlns="http://www.w3.org/2000/svg" height="452.689" id="screenshot-e61d46f6-c25b-8016-8002-2fd43bf9fb29" viewBox="450 -49 477.723 452.689" style="-webkit-print-color-adjust: exact;" fill="none" version="1.1"><g id="shape-e61d46f6-c25b-8016-8002-2fd43bf9fb29"><g class="fills" id="fills-e61d46f6-c25b-8016-8002-2fd43bf9fb29"><path rx="0" ry="0" d="M534.403,286.312C545.117,315.560,558.296,345.869,583.571,364.066C608.853,382.258,649.664,382.319,666.951,356.349C675.102,344.097,676.630,328.804,680.353,314.569C692.420,268.431,731.416,230.358,777.855,219.381C799.613,214.243,823.587,214.251,841.917,201.443C863.743,186.195,870.995,157.083,871.320,130.489C871.672,101.219,864.690,70.198,843.968,49.544C823.243,28.886,786.291,23.137,764.696,42.952C750.148,56.310,745.149,77.758,730.490,90.990C705.129,113.879,665.823,102.459,631.788,99.830C593.988,96.907,552.563,109.117,530.851,140.224C501.433,182.361,517.372,239.811,534.403,286.312Z" style="fill-rule: nonzero; stroke: none; fill: rgb(139, 46, 189); fill-opacity: 1;"/></g></g></svg>