<svg xmlns:xlink="http://www.w3.org/1999/xlink" width="313" xmlns="http://www.w3.org/2000/svg" height="282" id="screenshot-03b52bda-e704-80b3-8002-2fc2865bb05e" viewBox="2341 319 313 282" style="-webkit-print-color-adjust: exact;" fill="none" version="1.1"><g id="shape-03b52bda-e704-80b3-8002-2fc2865bb05e"><g class="fills" id="fills-03b52bda-e704-80b3-8002-2fc2865bb05e"><path rx="0" ry="0" d="M2456.728,353.475C2442.297,382.477,2405.304,400.867,2386.958,415.219C2370.168,428.358,2340.114,462.840,2341.020,487.053C2341.922,511.274,2360.328,535.358,2384.485,537.379C2394.998,538.255,2405.515,535.151,2416.039,535.868C2449.727,538.166,2468.491,575.932,2498.108,592.128C2532.247,610.795,2575.752,597.593,2607.336,574.879C2627.424,560.436,2645.501,541.273,2651.899,517.382C2658.295,493.493,2649.999,464.554,2628.219,452.819C2608.593,442.244,2578.702,443.796,2571.061,422.864C2565.712,408.228,2576.141,392.927,2578.484,377.522C2582.151,353.387,2563.783,329.362,2540.501,321.983C2517.216,314.608,2491.129,321.580,2471.079,335.525C2465.064,339.704,2460.395,346.111,2456.728,353.475Z" style="fill-rule: nonzero; stroke: none; fill: rgb(91, 132, 255); fill-opacity: 1;"/></g></g></svg>