<svg xmlns:xlink="http://www.w3.org/1999/xlink" width="370.992" xmlns="http://www.w3.org/2000/svg" height="532.171" id="screenshot-03b52bda-e704-80b3-8002-2fc2a7598092" viewBox="-180 387 370.992 532.171" style="-webkit-print-color-adjust: exact;" fill="none" version="1.1"><g id="shape-03b52bda-e704-80b3-8002-2fc2a7598092"><g class="fills" id="fills-03b52bda-e704-80b3-8002-2fc2a7598092"><path rx="0" ry="0" d="M-55.805,870.458C-39.903,872.860,-25.051,879.619,-12.285,889.405C2.845,901.009,20.361,910.642,36.446,904.198C64.843,892.803,80.880,862.915,91.795,834.319C101.618,808.579,109.183,779.636,99.335,753.908C92.572,736.238,78.441,722.505,69.017,706.105C54.497,680.837,51.936,649.014,62.230,621.745C73.039,593.109,96.512,570.792,108.190,542.502C121.664,509.882,117.056,469.772,94.357,442.770C71.658,415.769,31.061,404.515,-1.358,418.428C-33.439,432.197,-52.499,465.971,-61.852,499.622C-69.268,526.332,-72.045,554.324,-70.009,581.965C-68.770,598.814,-65.808,616.127,-70.632,632.319C-79.405,661.736,-110.220,677.791,-130.278,701.028C-167.679,744.346,-161.262,818.255,-116.959,854.453C-109.521,860.523,-101.096,865.665,-91.745,867.844C-80.821,870.387,-69.354,868.753,-58.218,870.121C-57.419,870.220,-56.607,870.336,-55.805,870.458Z" style="fill-rule: nonzero; stroke: none; fill: rgb(48, 229, 161); fill-opacity: 1;"/></g></g></svg>