<svg xmlns:xlink="http://www.w3.org/1999/xlink" width="436.2" xmlns="http://www.w3.org/2000/svg" height="349.407" id="screenshot-e61d46f6-c25b-8016-8002-2fd3f5a2a1a8" viewBox="1033.841 1144.353 436.2 349.407" style="-webkit-print-color-adjust: exact;" fill="none" version="1.1"><g id="shape-e61d46f6-c25b-8016-8002-2fd3f5a2a1a8"><g class="fills" id="fills-e61d46f6-c25b-8016-8002-2fd3f5a2a1a8"><path rx="0" ry="0" d="M1084.123,1396.682C1081.015,1412.491,1082.403,1428.951,1088.296,1443.951C1089.570,1447.188,1090.944,1450.098,1092.394,1452.329C1112.031,1482.481,1158.324,1486.350,1188.295,1466.531C1213.700,1449.728,1229.685,1420.013,1257.455,1407.498C1293.483,1391.263,1336.974,1409.259,1374.556,1397.061C1414.710,1384.027,1437.193,1338.770,1437.338,1296.482C1437.476,1254.196,1420.165,1214.035,1403.171,1175.309C1399.765,1167.563,1395.751,1159.162,1388.053,1155.662C1383.000,1153.364,1377.140,1153.619,1371.723,1154.814C1339.714,1161.883,1321.875,1197.082,1292.173,1210.972C1265.296,1223.543,1233.959,1216.684,1204.388,1214.190C1182.036,1212.305,1159.461,1213.094,1137.299,1216.529C1110.376,1220.704,1072.604,1237.831,1061.823,1254.728C1051.905,1270.270,1054.639,1283.717,1062.283,1295.045C1082.644,1325.203,1091.007,1361.629,1084.123,1396.682Z" style="fill-rule: nonzero; stroke: none; fill: rgb(134, 164, 255); fill-opacity: 1;"/></g></g></svg>