<svg xmlns:xlink="http://www.w3.org/1999/xlink" width="224" xmlns="http://www.w3.org/2000/svg" height="263" id="screenshot-03b52bda-e704-80b3-8002-2fc34b4f0ed3" viewBox="2408 1083 224 263" style="-webkit-print-color-adjust: exact;" fill="none" version="1.1"><g id="shape-03b52bda-e704-80b3-8002-2fc34b4f0ed3"><g class="fills" id="fills-03b52bda-e704-80b3-8002-2fc34b4f0ed3"><path rx="0" ry="0" d="M2434.171,1202.273C2449.014,1201.617,2463.362,1196.138,2472.704,1184.570C2483.182,1171.599,2491.382,1155.863,2499.344,1141.161C2515.215,1111.856,2538.663,1080.325,2573.621,1083.181C2590.030,1084.522,2604.702,1093.678,2614.673,1106.798C2633.779,1131.942,2634.496,1164.268,2629.088,1194.053C2620.206,1242.959,2595.249,1288.804,2559.013,1322.773C2546.392,1334.601,2531.200,1345.487,2513.925,1345.982C2498.727,1346.417,2484.609,1338.761,2471.344,1331.325C2459.835,1324.880,2448.230,1318.360,2438.382,1309.578C2421.748,1294.739,2410.868,1273.592,2408.454,1251.416C2407.006,1238.098,2408.809,1223.770,2416.951,1213.146C2421.701,1206.948,2428.996,1202.500,2434.171,1202.273Z" style="fill-rule: nonzero; stroke: none; fill: rgb(185, 91, 255); fill-opacity: 1;"/></g></g></svg>